<?xml version="1.0" encoding="utf-8" standalone="no"?>
<!DOCTYPE svg PUBLIC "-//W3C//DTD SVG 1.1//EN"
  "http://www.w3.org/Graphics/SVG/1.1/DTD/svg11.dtd">
<svg xmlns:xlink="http://www.w3.org/1999/xlink" width="720pt" height="360pt" viewBox="0 0 720 360" xmlns="http://www.w3.org/2000/svg" version="1.1">
 <metadata>
  <rdf:RDF xmlns:dc="http://purl.org/dc/elements/1.1/" xmlns:cc="http://creativecommons.org/ns#" xmlns:rdf="http://www.w3.org/1999/02/22-rdf-syntax-ns#">
   <cc:Work>
    <dc:type rdf:resource="http://purl.org/dc/dcmitype/StillImage"/>
    <dc:date>2024-07-10T14:18:22.500836</dc:date>
    <dc:format>image/svg+xml</dc:format>
    <dc:creator>
     <cc:Agent>
      <dc:title>Matplotlib v3.6.3, https://matplotlib.org/</dc:title>
     </cc:Agent>
    </dc:creator>
   </cc:Work>
  </rdf:RDF>
 </metadata>
 <defs>
  <style type="text/css">*{stroke-linejoin: round; stroke-linecap: butt}</style>
 </defs>
 <g id="figure_1">
  <g id="patch_1">
   <path d="M 0 360 
L 720 360 
L 720 0 
L 0 0 
z
" style="fill: #ffffff"/>
  </g>
  <g id="axes_1">
   <g id="patch_2">
    <path d="M 30.23 79.315 
L 701.235 79.315 
L 701.235 14.76 
L 30.23 14.76 
z
" style="fill: #ffffff"/>
   </g>
   <g id="matplotlib.axis_1">
    <g id="xtick_1">
     <g id="line2d_1">
      <path d="M 43.906258 79.315 
L 43.906258 14.76 
" clip-path="url(#p003f43ddea)" style="fill: none; stroke: #cccccc; stroke-width: 0.8; stroke-linecap: round"/>
     </g>
    </g>
    <g id="xtick_2">
     <g id="line2d_2">
      <path d="M 109.031299 79.315 
L 109.031299 14.76 
" clip-path="url(#p003f43ddea)" style="fill: none; stroke: #cccccc; stroke-width: 0.8; stroke-linecap: round"/>
     </g>
    </g>
    <g id="xtick_3">
     <g id="line2d_3">
      <path d="M 175.784465 79.315 
L 175.784465 14.76 
" clip-path="url(#p003f43ddea)" style="fill: none; stroke: #cccccc; stroke-width: 0.8; stroke-linecap: round"/>
     </g>
    </g>
    <g id="xtick_4">
     <g id="line2d_4">
      <path d="M 241.994923 79.315 
L 241.994923 14.76 
" clip-path="url(#p003f43ddea)" style="fill: none; stroke: #cccccc; stroke-width: 0.8; stroke-linecap: round"/>
     </g>
    </g>
    <g id="xtick_5">
     <g id="line2d_5">
      <path d="M 307.119964 79.315 
L 307.119964 14.76 
" clip-path="url(#p003f43ddea)" style="fill: none; stroke: #cccccc; stroke-width: 0.8; stroke-linecap: round"/>
     </g>
    </g>
    <g id="xtick_6">
     <g id="line2d_6">
      <path d="M 373.87313 79.315 
L 373.87313 14.76 
" clip-path="url(#p003f43ddea)" style="fill: none; stroke: #cccccc; stroke-width: 0.8; stroke-linecap: round"/>
     </g>
    </g>
    <g id="xtick_7">
     <g id="line2d_7">
      <path d="M 440.083588 79.315 
L 440.083588 14.76 
" clip-path="url(#p003f43ddea)" style="fill: none; stroke: #cccccc; stroke-width: 0.8; stroke-linecap: round"/>
     </g>
    </g>
    <g id="xtick_8">
     <g id="line2d_8">
      <path d="M 505.208628 79.315 
L 505.208628 14.76 
" clip-path="url(#p003f43ddea)" style="fill: none; stroke: #cccccc; stroke-width: 0.8; stroke-linecap: round"/>
     </g>
    </g>
    <g id="xtick_9">
     <g id="line2d_9">
      <path d="M 571.961795 79.315 
L 571.961795 14.76 
" clip-path="url(#p003f43ddea)" style="fill: none; stroke: #cccccc; stroke-width: 0.8; stroke-linecap: round"/>
     </g>
    </g>
    <g id="xtick_10">
     <g id="line2d_10">
      <path d="M 638.172253 79.315 
L 638.172253 14.76 
" clip-path="url(#p003f43ddea)" style="fill: none; stroke: #cccccc; stroke-width: 0.8; stroke-linecap: round"/>
     </g>
    </g>
   </g>
   <g id="matplotlib.axis_2">
    <g id="ytick_1">
     <g id="line2d_11">
      <path d="M 30.23 76.380682 
L 701.235 76.380682 
" clip-path="url(#p003f43ddea)" style="fill: none; stroke: #cccccc; stroke-width: 0.8; stroke-linecap: round"/>
     </g>
     <g id="text_1">
      <!-- 0 -->
      <g style="fill: #262626" transform="translate(20.3675 80.179901) scale(0.1 -0.1)">
       <defs>
        <path id="DejaVuSans-30" d="M 2034 4250 
Q 1547 4250 1301 3770 
Q 1056 3291 1056 2328 
Q 1056 1369 1301 889 
Q 1547 409 2034 409 
Q 2525 409 2770 889 
Q 3016 1369 3016 2328 
Q 3016 3291 2770 3770 
Q 2525 4250 2034 4250 
z
M 2034 4750 
Q 2819 4750 3233 4129 
Q 3647 3509 3647 2328 
Q 3647 1150 3233 529 
Q 2819 -91 2034 -91 
Q 1250 -91 836 529 
Q 422 1150 422 2328 
Q 422 3509 836 4129 
Q 1250 4750 2034 4750 
z
" transform="scale(0.015625)"/>
       </defs>
       <use xlink:href="#DejaVuSans-30"/>
      </g>
     </g>
    </g>
    <g id="ytick_2">
     <g id="line2d_12">
      <path d="M 30.23 38.023581 
L 701.235 38.023581 
" clip-path="url(#p003f43ddea)" style="fill: none; stroke: #cccccc; stroke-width: 0.8; stroke-linecap: round"/>
     </g>
     <g id="text_2">
      <!-- 100 -->
      <g style="fill: #262626" transform="translate(7.6425 41.8228) scale(0.1 -0.1)">
       <defs>
        <path id="DejaVuSans-31" d="M 794 531 
L 1825 531 
L 1825 4091 
L 703 3866 
L 703 4441 
L 1819 4666 
L 2450 4666 
L 2450 531 
L 3481 531 
L 3481 0 
L 794 0 
L 794 531 
z
" transform="scale(0.015625)"/>
       </defs>
       <use xlink:href="#DejaVuSans-31"/>
       <use xlink:href="#DejaVuSans-30" x="63.623047"/>
       <use xlink:href="#DejaVuSans-30" x="127.246094"/>
      </g>
     </g>
    </g>
    <g id="text_3">
     <!-- # Commits -->
     <g style="fill: #262626" transform="translate(1.562812 75.061719) rotate(-90) scale(0.1 -0.1)">
      <defs>
       <path id="DejaVuSans-23" d="M 3272 2816 
L 2363 2816 
L 2100 1772 
L 3016 1772 
L 3272 2816 
z
M 2803 4594 
L 2478 3297 
L 3391 3297 
L 3719 4594 
L 4219 4594 
L 3897 3297 
L 4872 3297 
L 4872 2816 
L 3775 2816 
L 3519 1772 
L 4513 1772 
L 4513 1294 
L 3397 1294 
L 3072 0 
L 2572 0 
L 2894 1294 
L 1978 1294 
L 1656 0 
L 1153 0 
L 1478 1294 
L 494 1294 
L 494 1772 
L 1594 1772 
L 1856 2816 
L 850 2816 
L 850 3297 
L 1978 3297 
L 2297 4594 
L 2803 4594 
z
" transform="scale(0.015625)"/>
       <path id="DejaVuSans-20" transform="scale(0.015625)"/>
       <path id="DejaVuSans-43" d="M 4122 4306 
L 4122 3641 
Q 3803 3938 3442 4084 
Q 3081 4231 2675 4231 
Q 1875 4231 1450 3742 
Q 1025 3253 1025 2328 
Q 1025 1406 1450 917 
Q 1875 428 2675 428 
Q 3081 428 3442 575 
Q 3803 722 4122 1019 
L 4122 359 
Q 3791 134 3420 21 
Q 3050 -91 2638 -91 
Q 1578 -91 968 557 
Q 359 1206 359 2328 
Q 359 3453 968 4101 
Q 1578 4750 2638 4750 
Q 3056 4750 3426 4639 
Q 3797 4528 4122 4306 
z
" transform="scale(0.015625)"/>
       <path id="DejaVuSans-6f" d="M 1959 3097 
Q 1497 3097 1228 2736 
Q 959 2375 959 1747 
Q 959 1119 1226 758 
Q 1494 397 1959 397 
Q 2419 397 2687 759 
Q 2956 1122 2956 1747 
Q 2956 2369 2687 2733 
Q 2419 3097 1959 3097 
z
M 1959 3584 
Q 2709 3584 3137 3096 
Q 3566 2609 3566 1747 
Q 3566 888 3137 398 
Q 2709 -91 1959 -91 
Q 1206 -91 779 398 
Q 353 888 353 1747 
Q 353 2609 779 3096 
Q 1206 3584 1959 3584 
z
" transform="scale(0.015625)"/>
       <path id="DejaVuSans-6d" d="M 3328 2828 
Q 3544 3216 3844 3400 
Q 4144 3584 4550 3584 
Q 5097 3584 5394 3201 
Q 5691 2819 5691 2113 
L 5691 0 
L 5113 0 
L 5113 2094 
Q 5113 2597 4934 2840 
Q 4756 3084 4391 3084 
Q 3944 3084 3684 2787 
Q 3425 2491 3425 1978 
L 3425 0 
L 2847 0 
L 2847 2094 
Q 2847 2600 2669 2842 
Q 2491 3084 2119 3084 
Q 1678 3084 1418 2786 
Q 1159 2488 1159 1978 
L 1159 0 
L 581 0 
L 581 3500 
L 1159 3500 
L 1159 2956 
Q 1356 3278 1631 3431 
Q 1906 3584 2284 3584 
Q 2666 3584 2933 3390 
Q 3200 3197 3328 2828 
z
" transform="scale(0.015625)"/>
       <path id="DejaVuSans-69" d="M 603 3500 
L 1178 3500 
L 1178 0 
L 603 0 
L 603 3500 
z
M 603 4863 
L 1178 4863 
L 1178 4134 
L 603 4134 
L 603 4863 
z
" transform="scale(0.015625)"/>
       <path id="DejaVuSans-74" d="M 1172 4494 
L 1172 3500 
L 2356 3500 
L 2356 3053 
L 1172 3053 
L 1172 1153 
Q 1172 725 1289 603 
Q 1406 481 1766 481 
L 2356 481 
L 2356 0 
L 1766 0 
Q 1100 0 847 248 
Q 594 497 594 1153 
L 594 3053 
L 172 3053 
L 172 3500 
L 594 3500 
L 594 4494 
L 1172 4494 
z
" transform="scale(0.015625)"/>
       <path id="DejaVuSans-73" d="M 2834 3397 
L 2834 2853 
Q 2591 2978 2328 3040 
Q 2066 3103 1784 3103 
Q 1356 3103 1142 2972 
Q 928 2841 928 2578 
Q 928 2378 1081 2264 
Q 1234 2150 1697 2047 
L 1894 2003 
Q 2506 1872 2764 1633 
Q 3022 1394 3022 966 
Q 3022 478 2636 193 
Q 2250 -91 1575 -91 
Q 1294 -91 989 -36 
Q 684 19 347 128 
L 347 722 
Q 666 556 975 473 
Q 1284 391 1588 391 
Q 1994 391 2212 530 
Q 2431 669 2431 922 
Q 2431 1156 2273 1281 
Q 2116 1406 1581 1522 
L 1381 1569 
Q 847 1681 609 1914 
Q 372 2147 372 2553 
Q 372 3047 722 3315 
Q 1072 3584 1716 3584 
Q 2034 3584 2315 3537 
Q 2597 3491 2834 3397 
z
" transform="scale(0.015625)"/>
      </defs>
      <use xlink:href="#DejaVuSans-23"/>
      <use xlink:href="#DejaVuSans-20" x="83.789062"/>
      <use xlink:href="#DejaVuSans-43" x="115.576172"/>
      <use xlink:href="#DejaVuSans-6f" x="185.400391"/>
      <use xlink:href="#DejaVuSans-6d" x="246.582031"/>
      <use xlink:href="#DejaVuSans-6d" x="343.994141"/>
      <use xlink:href="#DejaVuSans-69" x="441.40625"/>
      <use xlink:href="#DejaVuSans-74" x="469.189453"/>
      <use xlink:href="#DejaVuSans-73" x="508.398438"/>
     </g>
    </g>
   </g>
   <g id="PolyCollection_1">
    <defs>
     <path id="m92e1c639fb" d="M 60.730227 -283.619318 
L 60.730227 -284.002889 
L 92.750039 -284.38646 
L 125.855268 -284.38646 
L 175.784465 -285.153602 
L 192.065725 -285.537173 
L 208.889694 -284.770031 
L 225.170954 -284.002889 
L 241.994923 -284.002889 
L 258.818892 -287.071457 
L 274.014735 -287.455028 
L 290.838703 -287.455028 
L 307.119964 -286.304315 
L 323.943932 -293.975735 
L 340.225192 -293.975735 
L 357.049161 -289.372883 
L 373.87313 -292.825022 
L 390.15439 -298.578587 
L 406.978359 -316.222854 
L 423.259619 -303.181439 
L 440.083588 -321.976419 
L 456.907557 -301.647155 
L 472.103399 -300.496442 
L 488.927368 -289.372883 
L 505.208628 -297.044303 
L 522.032597 -291.290738 
L 538.313857 -300.496442 
L 555.137826 -292.441451 
L 571.961795 -313.537857 
L 588.243055 -301.263584 
L 605.067024 -292.441451 
L 621.348284 -292.825022 
L 638.172253 -298.962158 
L 654.996221 -342.305682 
L 670.734773 -293.592164 
L 670.734773 -283.619318 
L 670.734773 -283.619318 
L 654.996221 -283.619318 
L 638.172253 -283.619318 
L 621.348284 -283.619318 
L 605.067024 -283.619318 
L 588.243055 -283.619318 
L 571.961795 -283.619318 
L 555.137826 -283.619318 
L 538.313857 -283.619318 
L 522.032597 -283.619318 
L 505.208628 -283.619318 
L 488.927368 -283.619318 
L 472.103399 -283.619318 
L 456.907557 -283.619318 
L 440.083588 -283.619318 
L 423.259619 -283.619318 
L 406.978359 -283.619318 
L 390.15439 -283.619318 
L 373.87313 -283.619318 
L 357.049161 -283.619318 
L 340.225192 -283.619318 
L 323.943932 -283.619318 
L 307.119964 -283.619318 
L 290.838703 -283.619318 
L 274.014735 -283.619318 
L 258.818892 -283.619318 
L 241.994923 -283.619318 
L 225.170954 -283.619318 
L 208.889694 -283.619318 
L 192.065725 -283.619318 
L 175.784465 -283.619318 
L 125.855268 -283.619318 
L 92.750039 -283.619318 
L 60.730227 -283.619318 
z
" style="stroke: #f77189"/>
    </defs>
    <g clip-path="url(#p003f43ddea)">
     <use xlink:href="#m92e1c639fb" x="0" y="360" style="fill: #f77189; stroke: #f77189"/>
    </g>
   </g>
   <g id="patch_3">
    <path d="M 30.23 79.315 
L 30.23 14.76 
" style="fill: none"/>
   </g>
   <g id="patch_4">
    <path d="M 701.235 79.315 
L 701.235 14.76 
" style="fill: none"/>
   </g>
   <g id="patch_5">
    <path d="M 30.23 79.315 
L 701.235 79.315 
" style="fill: none"/>
   </g>
   <g id="patch_6">
    <path d="M 30.23 14.76 
L 701.235 14.76 
" style="fill: none"/>
   </g>
  </g>
  <g id="axes_2">
   <g id="patch_7">
    <path d="M 30.23 164.75 
L 701.235 164.75 
L 701.235 100.195 
L 30.23 100.195 
z
" style="fill: #ffffff"/>
   </g>
   <g id="matplotlib.axis_3">
    <g id="xtick_11">
     <g id="line2d_13">
      <path d="M 43.906258 164.75 
L 43.906258 100.195 
" clip-path="url(#p4a85cabe6f)" style="fill: none; stroke: #cccccc; stroke-width: 0.8; stroke-linecap: round"/>
     </g>
    </g>
    <g id="xtick_12">
     <g id="line2d_14">
      <path d="M 109.031299 164.75 
L 109.031299 100.195 
" clip-path="url(#p4a85cabe6f)" style="fill: none; stroke: #cccccc; stroke-width: 0.8; stroke-linecap: round"/>
     </g>
    </g>
    <g id="xtick_13">
     <g id="line2d_15">
      <path d="M 175.784465 164.75 
L 175.784465 100.195 
" clip-path="url(#p4a85cabe6f)" style="fill: none; stroke: #cccccc; stroke-width: 0.8; stroke-linecap: round"/>
     </g>
    </g>
    <g id="xtick_14">
     <g id="line2d_16">
      <path d="M 241.994923 164.75 
L 241.994923 100.195 
" clip-path="url(#p4a85cabe6f)" style="fill: none; stroke: #cccccc; stroke-width: 0.8; stroke-linecap: round"/>
     </g>
    </g>
    <g id="xtick_15">
     <g id="line2d_17">
      <path d="M 307.119964 164.75 
L 307.119964 100.195 
" clip-path="url(#p4a85cabe6f)" style="fill: none; stroke: #cccccc; stroke-width: 0.8; stroke-linecap: round"/>
     </g>
    </g>
    <g id="xtick_16">
     <g id="line2d_18">
      <path d="M 373.87313 164.75 
L 373.87313 100.195 
" clip-path="url(#p4a85cabe6f)" style="fill: none; stroke: #cccccc; stroke-width: 0.8; stroke-linecap: round"/>
     </g>
    </g>
    <g id="xtick_17">
     <g id="line2d_19">
      <path d="M 440.083588 164.75 
L 440.083588 100.195 
" clip-path="url(#p4a85cabe6f)" style="fill: none; stroke: #cccccc; stroke-width: 0.8; stroke-linecap: round"/>
     </g>
    </g>
    <g id="xtick_18">
     <g id="line2d_20">
      <path d="M 505.208628 164.75 
L 505.208628 100.195 
" clip-path="url(#p4a85cabe6f)" style="fill: none; stroke: #cccccc; stroke-width: 0.8; stroke-linecap: round"/>
     </g>
    </g>
    <g id="xtick_19">
     <g id="line2d_21">
      <path d="M 571.961795 164.75 
L 571.961795 100.195 
" clip-path="url(#p4a85cabe6f)" style="fill: none; stroke: #cccccc; stroke-width: 0.8; stroke-linecap: round"/>
     </g>
    </g>
    <g id="xtick_20">
     <g id="line2d_22">
      <path d="M 638.172253 164.75 
L 638.172253 100.195 
" clip-path="url(#p4a85cabe6f)" style="fill: none; stroke: #cccccc; stroke-width: 0.8; stroke-linecap: round"/>
     </g>
    </g>
   </g>
   <g id="matplotlib.axis_4">
    <g id="ytick_3">
     <g id="line2d_23">
      <path d="M 30.23 103.129318 
L 701.235 103.129318 
" clip-path="url(#p4a85cabe6f)" style="fill: none; stroke: #cccccc; stroke-width: 0.8; stroke-linecap: round"/>
     </g>
     <g id="text_4">
      <!-- Lasse -->
      <g style="fill: #262626" transform="translate(-1.541875 106.928537) scale(0.1 -0.1)">
       <defs>
        <path id="DejaVuSans-4c" d="M 628 4666 
L 1259 4666 
L 1259 531 
L 3531 531 
L 3531 0 
L 628 0 
L 628 4666 
z
" transform="scale(0.015625)"/>
        <path id="DejaVuSans-61" d="M 2194 1759 
Q 1497 1759 1228 1600 
Q 959 1441 959 1056 
Q 959 750 1161 570 
Q 1363 391 1709 391 
Q 2188 391 2477 730 
Q 2766 1069 2766 1631 
L 2766 1759 
L 2194 1759 
z
M 3341 1997 
L 3341 0 
L 2766 0 
L 2766 531 
Q 2569 213 2275 61 
Q 1981 -91 1556 -91 
Q 1019 -91 701 211 
Q 384 513 384 1019 
Q 384 1609 779 1909 
Q 1175 2209 1959 2209 
L 2766 2209 
L 2766 2266 
Q 2766 2663 2505 2880 
Q 2244 3097 1772 3097 
Q 1472 3097 1187 3025 
Q 903 2953 641 2809 
L 641 3341 
Q 956 3463 1253 3523 
Q 1550 3584 1831 3584 
Q 2591 3584 2966 3190 
Q 3341 2797 3341 1997 
z
" transform="scale(0.015625)"/>
        <path id="DejaVuSans-65" d="M 3597 1894 
L 3597 1613 
L 953 1613 
Q 991 1019 1311 708 
Q 1631 397 2203 397 
Q 2534 397 2845 478 
Q 3156 559 3463 722 
L 3463 178 
Q 3153 47 2828 -22 
Q 2503 -91 2169 -91 
Q 1331 -91 842 396 
Q 353 884 353 1716 
Q 353 2575 817 3079 
Q 1281 3584 2069 3584 
Q 2775 3584 3186 3129 
Q 3597 2675 3597 1894 
z
M 3022 2063 
Q 3016 2534 2758 2815 
Q 2500 3097 2075 3097 
Q 1594 3097 1305 2825 
Q 1016 2553 972 2059 
L 3022 2063 
z
" transform="scale(0.015625)"/>
       </defs>
       <use xlink:href="#DejaVuSans-4c"/>
       <use xlink:href="#DejaVuSans-61" x="55.712891"/>
       <use xlink:href="#DejaVuSans-73" x="116.992188"/>
       <use xlink:href="#DejaVuSans-73" x="169.091797"/>
       <use xlink:href="#DejaVuSans-65" x="221.191406"/>
      </g>
     </g>
    </g>
    <g id="ytick_4">
     <g id="line2d_24">
      <path d="M 30.23 161.815682 
L 701.235 161.815682 
" clip-path="url(#p4a85cabe6f)" style="fill: none; stroke: #cccccc; stroke-width: 0.8; stroke-linecap: round"/>
     </g>
     <g id="text_5">
      <!-- Jia -->
      <g style="fill: #262626" transform="translate(14.87375 165.614901) scale(0.1 -0.1)">
       <defs>
        <path id="DejaVuSans-4a" d="M 628 4666 
L 1259 4666 
L 1259 325 
Q 1259 -519 939 -900 
Q 619 -1281 -91 -1281 
L -331 -1281 
L -331 -750 
L -134 -750 
Q 284 -750 456 -515 
Q 628 -281 628 325 
L 628 4666 
z
" transform="scale(0.015625)"/>
       </defs>
       <use xlink:href="#DejaVuSans-4a"/>
       <use xlink:href="#DejaVuSans-69" x="29.492188"/>
       <use xlink:href="#DejaVuSans-61" x="57.275391"/>
      </g>
     </g>
    </g>
    <g id="text_6">
     <!-- % Commits -->
     <g style="fill: #262626" transform="translate(-7.621563 161.057656) rotate(-90) scale(0.1 -0.1)">
      <defs>
       <path id="DejaVuSans-25" d="M 4653 2053 
Q 4381 2053 4226 1822 
Q 4072 1591 4072 1178 
Q 4072 772 4226 539 
Q 4381 306 4653 306 
Q 4919 306 5073 539 
Q 5228 772 5228 1178 
Q 5228 1588 5073 1820 
Q 4919 2053 4653 2053 
z
M 4653 2450 
Q 5147 2450 5437 2106 
Q 5728 1763 5728 1178 
Q 5728 594 5436 251 
Q 5144 -91 4653 -91 
Q 4153 -91 3862 251 
Q 3572 594 3572 1178 
Q 3572 1766 3864 2108 
Q 4156 2450 4653 2450 
z
M 1428 4353 
Q 1159 4353 1004 4120 
Q 850 3888 850 3481 
Q 850 3069 1003 2837 
Q 1156 2606 1428 2606 
Q 1700 2606 1854 2837 
Q 2009 3069 2009 3481 
Q 2009 3884 1853 4118 
Q 1697 4353 1428 4353 
z
M 4250 4750 
L 4750 4750 
L 1831 -91 
L 1331 -91 
L 4250 4750 
z
M 1428 4750 
Q 1922 4750 2215 4408 
Q 2509 4066 2509 3481 
Q 2509 2891 2217 2550 
Q 1925 2209 1428 2209 
Q 931 2209 642 2551 
Q 353 2894 353 3481 
Q 353 4063 643 4406 
Q 934 4750 1428 4750 
z
" transform="scale(0.015625)"/>
      </defs>
      <use xlink:href="#DejaVuSans-25"/>
      <use xlink:href="#DejaVuSans-20" x="95.019531"/>
      <use xlink:href="#DejaVuSans-43" x="126.806641"/>
      <use xlink:href="#DejaVuSans-6f" x="196.630859"/>
      <use xlink:href="#DejaVuSans-6d" x="257.8125"/>
      <use xlink:href="#DejaVuSans-6d" x="355.224609"/>
      <use xlink:href="#DejaVuSans-69" x="452.636719"/>
      <use xlink:href="#DejaVuSans-74" x="480.419922"/>
      <use xlink:href="#DejaVuSans-73" x="519.628906"/>
     </g>
    </g>
   </g>
   <g id="PolyCollection_2">
    <defs>
     <path id="meff1269a21" d="M 588.243055 -227.5275 
L 588.243055 -226.889605 
L 588.243055 -227.5275 
L 588.243055 -227.5275 
z
" style="stroke: #bb9832"/>
    </defs>
    <g clip-path="url(#p4a85cabe6f)">
     <use xlink:href="#meff1269a21" x="0" y="360" style="fill: #bb9832; stroke: #bb9832"/>
    </g>
   </g>
   <g id="PolyCollection_3">
    <defs>
     <path id="m01f66b6499" d="M 241.994923 -227.5275 
L 241.994923 -198.184318 
L 307.119964 -223.335617 
L 323.943932 -223.180362 
L 340.225192 -224.267146 
L 357.049161 -223.615076 
L 373.87313 -221.414337 
L 390.15439 -223.013164 
L 406.978359 -226.146644 
L 423.259619 -215.445013 
L 440.083588 -213.149341 
L 456.907557 -203.178902 
L 472.103399 -210.188347 
L 488.927368 -202.096742 
L 505.208628 -199.022695 
L 522.032597 -206.987273 
L 538.313857 -201.518771 
L 555.137826 -208.390642 
L 571.961795 -217.746439 
L 588.243055 -217.959071 
L 605.067024 -203.28748 
L 621.348284 -207.965379 
L 638.172253 -205.520114 
L 654.996221 -216.212155 
L 670.734773 -215.113077 
L 670.734773 -227.5275 
L 670.734773 -227.5275 
L 654.996221 -227.5275 
L 638.172253 -227.5275 
L 621.348284 -227.5275 
L 605.067024 -227.5275 
L 588.243055 -227.5275 
L 571.961795 -227.5275 
L 555.137826 -227.5275 
L 538.313857 -227.5275 
L 522.032597 -227.5275 
L 505.208628 -227.5275 
L 488.927368 -227.5275 
L 472.103399 -227.5275 
L 456.907557 -227.5275 
L 440.083588 -227.5275 
L 423.259619 -227.5275 
L 406.978359 -227.5275 
L 390.15439 -227.5275 
L 373.87313 -227.5275 
L 357.049161 -227.5275 
L 340.225192 -227.5275 
L 323.943932 -227.5275 
L 307.119964 -227.5275 
L 241.994923 -227.5275 
z
" style="stroke: #bb9832; stroke-opacity: 0.6"/>
    </defs>
    <g clip-path="url(#p4a85cabe6f)">
     <use xlink:href="#m01f66b6499" x="0" y="360" style="fill: #bb9832; fill-opacity: 0.6; stroke: #bb9832; stroke-opacity: 0.6"/>
    </g>
   </g>
   <g id="PolyCollection_4">
    <defs>
     <path id="m7b98eb8860" d="M 258.818892 -227.5275 
L 258.818892 -230.787854 
L 274.014735 -233.396136 
L 290.838703 -230.461818 
L 323.943932 -234.048207 
L 340.225192 -232.961423 
L 357.049161 -233.396136 
L 373.87313 -228.750133 
L 390.15439 -229.032279 
L 406.978359 -228.908356 
L 423.259619 -228.678213 
L 571.961795 -228.279889 
L 571.961795 -227.5275 
L 571.961795 -227.5275 
L 423.259619 -227.5275 
L 406.978359 -227.5275 
L 390.15439 -227.5275 
L 373.87313 -227.5275 
L 357.049161 -227.5275 
L 340.225192 -227.5275 
L 323.943932 -227.5275 
L 290.838703 -227.5275 
L 274.014735 -227.5275 
L 258.818892 -227.5275 
z
" style="stroke: #50b131"/>
    </defs>
    <g clip-path="url(#p4a85cabe6f)">
     <use xlink:href="#m7b98eb8860" x="0" y="360" style="fill: #50b131; stroke: #50b131"/>
    </g>
   </g>
   <g id="PolyCollection_5">
    <defs>
     <path id="m87637b6b0a" d="M 60.730227 -227.5275 
L 60.730227 -256.870682 
L 92.750039 -242.199091 
L 125.855268 -256.870682 
L 175.784465 -256.870682 
L 192.065725 -251.002045 
L 208.889694 -247.089621 
L 258.818892 -253.610328 
L 274.014735 -256.870682 
L 290.838703 -256.870682 
L 307.119964 -252.678799 
L 323.943932 -251.436759 
L 340.225192 -252.523544 
L 357.049161 -252.958258 
L 373.87313 -250.757519 
L 390.15439 -252.356346 
L 406.978359 -255.489826 
L 423.259619 -244.788195 
L 440.083588 -242.492523 
L 456.907557 -232.522084 
L 472.103399 -239.531529 
L 488.927368 -229.483712 
L 505.208628 -228.365877 
L 522.032597 -231.928977 
L 538.313857 -230.195062 
L 555.137826 -235.182243 
L 571.961795 -244.456259 
L 588.243055 -245.388567 
L 605.067024 -230.079081 
L 621.348284 -231.195398 
L 638.172253 -234.129716 
L 654.996221 -245.171766 
L 670.734773 -241.070507 
L 670.734773 -227.5275 
L 670.734773 -227.5275 
L 654.996221 -227.5275 
L 638.172253 -227.5275 
L 621.348284 -227.5275 
L 605.067024 -227.5275 
L 588.243055 -227.5275 
L 571.961795 -227.5275 
L 555.137826 -227.5275 
L 538.313857 -227.5275 
L 522.032597 -227.5275 
L 505.208628 -227.5275 
L 488.927368 -227.5275 
L 472.103399 -227.5275 
L 456.907557 -227.5275 
L 440.083588 -227.5275 
L 423.259619 -227.5275 
L 406.978359 -227.5275 
L 390.15439 -227.5275 
L 373.87313 -227.5275 
L 357.049161 -227.5275 
L 340.225192 -227.5275 
L 323.943932 -227.5275 
L 307.119964 -227.5275 
L 290.838703 -227.5275 
L 274.014735 -227.5275 
L 258.818892 -227.5275 
L 208.889694 -227.5275 
L 192.065725 -227.5275 
L 175.784465 -227.5275 
L 125.855268 -227.5275 
L 92.750039 -227.5275 
L 60.730227 -227.5275 
z
" style="stroke: #50b131; stroke-opacity: 0.6"/>
    </defs>
    <g clip-path="url(#p4a85cabe6f)">
     <use xlink:href="#m87637b6b0a" x="0" y="360" style="fill: #50b131; fill-opacity: 0.6; stroke: #50b131; stroke-opacity: 0.6"/>
    </g>
   </g>
   <g id="patch_8">
    <path d="M 30.23 164.75 
L 30.23 100.195 
" style="fill: none"/>
   </g>
   <g id="patch_9">
    <path d="M 701.235 164.75 
L 701.235 100.195 
" style="fill: none"/>
   </g>
   <g id="patch_10">
    <path d="M 30.23 164.75 
L 701.235 164.75 
" style="fill: none"/>
   </g>
   <g id="patch_11">
    <path d="M 30.23 100.195 
L 701.235 100.195 
" style="fill: none"/>
   </g>
  </g>
  <g id="axes_3">
   <g id="patch_12">
    <path d="M 30.23 250.185 
L 701.235 250.185 
L 701.235 185.63 
L 30.23 185.63 
z
" style="fill: #ffffff"/>
   </g>
   <g id="matplotlib.axis_5">
    <g id="xtick_21">
     <g id="line2d_25">
      <path d="M 43.906258 250.185 
L 43.906258 185.63 
" clip-path="url(#p35ae68aa6c)" style="fill: none; stroke: #cccccc; stroke-width: 0.8; stroke-linecap: round"/>
     </g>
    </g>
    <g id="xtick_22">
     <g id="line2d_26">
      <path d="M 109.031299 250.185 
L 109.031299 185.63 
" clip-path="url(#p35ae68aa6c)" style="fill: none; stroke: #cccccc; stroke-width: 0.8; stroke-linecap: round"/>
     </g>
    </g>
    <g id="xtick_23">
     <g id="line2d_27">
      <path d="M 175.784465 250.185 
L 175.784465 185.63 
" clip-path="url(#p35ae68aa6c)" style="fill: none; stroke: #cccccc; stroke-width: 0.8; stroke-linecap: round"/>
     </g>
    </g>
    <g id="xtick_24">
     <g id="line2d_28">
      <path d="M 241.994923 250.185 
L 241.994923 185.63 
" clip-path="url(#p35ae68aa6c)" style="fill: none; stroke: #cccccc; stroke-width: 0.8; stroke-linecap: round"/>
     </g>
    </g>
    <g id="xtick_25">
     <g id="line2d_29">
      <path d="M 307.119964 250.185 
L 307.119964 185.63 
" clip-path="url(#p35ae68aa6c)" style="fill: none; stroke: #cccccc; stroke-width: 0.8; stroke-linecap: round"/>
     </g>
    </g>
    <g id="xtick_26">
     <g id="line2d_30">
      <path d="M 373.87313 250.185 
L 373.87313 185.63 
" clip-path="url(#p35ae68aa6c)" style="fill: none; stroke: #cccccc; stroke-width: 0.8; stroke-linecap: round"/>
     </g>
    </g>
    <g id="xtick_27">
     <g id="line2d_31">
      <path d="M 440.083588 250.185 
L 440.083588 185.63 
" clip-path="url(#p35ae68aa6c)" style="fill: none; stroke: #cccccc; stroke-width: 0.8; stroke-linecap: round"/>
     </g>
    </g>
    <g id="xtick_28">
     <g id="line2d_32">
      <path d="M 505.208628 250.185 
L 505.208628 185.63 
" clip-path="url(#p35ae68aa6c)" style="fill: none; stroke: #cccccc; stroke-width: 0.8; stroke-linecap: round"/>
     </g>
    </g>
    <g id="xtick_29">
     <g id="line2d_33">
      <path d="M 571.961795 250.185 
L 571.961795 185.63 
" clip-path="url(#p35ae68aa6c)" style="fill: none; stroke: #cccccc; stroke-width: 0.8; stroke-linecap: round"/>
     </g>
    </g>
    <g id="xtick_30">
     <g id="line2d_34">
      <path d="M 638.172253 250.185 
L 638.172253 185.63 
" clip-path="url(#p35ae68aa6c)" style="fill: none; stroke: #cccccc; stroke-width: 0.8; stroke-linecap: round"/>
     </g>
    </g>
   </g>
   <g id="matplotlib.axis_6">
    <g id="ytick_5">
     <g id="line2d_35">
      <path d="M 30.23 247.250682 
L 701.235 247.250682 
" clip-path="url(#p35ae68aa6c)" style="fill: none; stroke: #cccccc; stroke-width: 0.8; stroke-linecap: round"/>
     </g>
     <g id="text_7">
      <!-- 0 -->
      <g style="fill: #262626" transform="translate(20.3675 251.049901) scale(0.1 -0.1)">
       <use xlink:href="#DejaVuSans-30"/>
      </g>
     </g>
    </g>
    <g id="ytick_6">
     <g id="line2d_36">
      <path d="M 30.23 217.613349 
L 701.235 217.613349 
" clip-path="url(#p35ae68aa6c)" style="fill: none; stroke: #cccccc; stroke-width: 0.8; stroke-linecap: round"/>
     </g>
     <g id="text_8">
      <!-- 20000 -->
      <g style="fill: #262626" transform="translate(-5.0825 221.412568) scale(0.1 -0.1)">
       <defs>
        <path id="DejaVuSans-32" d="M 1228 531 
L 3431 531 
L 3431 0 
L 469 0 
L 469 531 
Q 828 903 1448 1529 
Q 2069 2156 2228 2338 
Q 2531 2678 2651 2914 
Q 2772 3150 2772 3378 
Q 2772 3750 2511 3984 
Q 2250 4219 1831 4219 
Q 1534 4219 1204 4116 
Q 875 4013 500 3803 
L 500 4441 
Q 881 4594 1212 4672 
Q 1544 4750 1819 4750 
Q 2544 4750 2975 4387 
Q 3406 4025 3406 3419 
Q 3406 3131 3298 2873 
Q 3191 2616 2906 2266 
Q 2828 2175 2409 1742 
Q 1991 1309 1228 531 
z
" transform="scale(0.015625)"/>
       </defs>
       <use xlink:href="#DejaVuSans-32"/>
       <use xlink:href="#DejaVuSans-30" x="63.623047"/>
       <use xlink:href="#DejaVuSans-30" x="127.246094"/>
       <use xlink:href="#DejaVuSans-30" x="190.869141"/>
       <use xlink:href="#DejaVuSans-30" x="254.492188"/>
      </g>
     </g>
    </g>
    <g id="ytick_7">
     <g id="line2d_37">
      <path d="M 30.23 187.976017 
L 701.235 187.976017 
" clip-path="url(#p35ae68aa6c)" style="fill: none; stroke: #cccccc; stroke-width: 0.8; stroke-linecap: round"/>
     </g>
     <g id="text_9">
      <!-- 40000 -->
      <g style="fill: #262626" transform="translate(-5.0825 191.775236) scale(0.1 -0.1)">
       <defs>
        <path id="DejaVuSans-34" d="M 2419 4116 
L 825 1625 
L 2419 1625 
L 2419 4116 
z
M 2253 4666 
L 3047 4666 
L 3047 1625 
L 3713 1625 
L 3713 1100 
L 3047 1100 
L 3047 0 
L 2419 0 
L 2419 1100 
L 313 1100 
L 313 1709 
L 2253 4666 
z
" transform="scale(0.015625)"/>
       </defs>
       <use xlink:href="#DejaVuSans-34"/>
       <use xlink:href="#DejaVuSans-30" x="63.623047"/>
       <use xlink:href="#DejaVuSans-30" x="127.246094"/>
       <use xlink:href="#DejaVuSans-30" x="190.869141"/>
       <use xlink:href="#DejaVuSans-30" x="254.492188"/>
      </g>
     </g>
    </g>
    <g id="text_10">
     <!-- # Lines -->
     <g style="fill: #262626" transform="translate(-22.36 236.711406) rotate(-90) scale(0.1 -0.1)">
      <defs>
       <path id="DejaVuSans-6e" d="M 3513 2113 
L 3513 0 
L 2938 0 
L 2938 2094 
Q 2938 2591 2744 2837 
Q 2550 3084 2163 3084 
Q 1697 3084 1428 2787 
Q 1159 2491 1159 1978 
L 1159 0 
L 581 0 
L 581 3500 
L 1159 3500 
L 1159 2956 
Q 1366 3272 1645 3428 
Q 1925 3584 2291 3584 
Q 2894 3584 3203 3211 
Q 3513 2838 3513 2113 
z
" transform="scale(0.015625)"/>
      </defs>
      <use xlink:href="#DejaVuSans-23"/>
      <use xlink:href="#DejaVuSans-20" x="83.789062"/>
      <use xlink:href="#DejaVuSans-4c" x="115.576172"/>
      <use xlink:href="#DejaVuSans-69" x="171.289062"/>
      <use xlink:href="#DejaVuSans-6e" x="199.072266"/>
      <use xlink:href="#DejaVuSans-65" x="262.451172"/>
      <use xlink:href="#DejaVuSans-73" x="323.974609"/>
     </g>
     <!--  changed -->
     <g style="fill: #262626" transform="translate(-11.162187 241.072344) rotate(-90) scale(0.1 -0.1)">
      <defs>
       <path id="DejaVuSans-63" d="M 3122 3366 
L 3122 2828 
Q 2878 2963 2633 3030 
Q 2388 3097 2138 3097 
Q 1578 3097 1268 2742 
Q 959 2388 959 1747 
Q 959 1106 1268 751 
Q 1578 397 2138 397 
Q 2388 397 2633 464 
Q 2878 531 3122 666 
L 3122 134 
Q 2881 22 2623 -34 
Q 2366 -91 2075 -91 
Q 1284 -91 818 406 
Q 353 903 353 1747 
Q 353 2603 823 3093 
Q 1294 3584 2113 3584 
Q 2378 3584 2631 3529 
Q 2884 3475 3122 3366 
z
" transform="scale(0.015625)"/>
       <path id="DejaVuSans-68" d="M 3513 2113 
L 3513 0 
L 2938 0 
L 2938 2094 
Q 2938 2591 2744 2837 
Q 2550 3084 2163 3084 
Q 1697 3084 1428 2787 
Q 1159 2491 1159 1978 
L 1159 0 
L 581 0 
L 581 4863 
L 1159 4863 
L 1159 2956 
Q 1366 3272 1645 3428 
Q 1925 3584 2291 3584 
Q 2894 3584 3203 3211 
Q 3513 2838 3513 2113 
z
" transform="scale(0.015625)"/>
       <path id="DejaVuSans-67" d="M 2906 1791 
Q 2906 2416 2648 2759 
Q 2391 3103 1925 3103 
Q 1463 3103 1205 2759 
Q 947 2416 947 1791 
Q 947 1169 1205 825 
Q 1463 481 1925 481 
Q 2391 481 2648 825 
Q 2906 1169 2906 1791 
z
M 3481 434 
Q 3481 -459 3084 -895 
Q 2688 -1331 1869 -1331 
Q 1566 -1331 1297 -1286 
Q 1028 -1241 775 -1147 
L 775 -588 
Q 1028 -725 1275 -790 
Q 1522 -856 1778 -856 
Q 2344 -856 2625 -561 
Q 2906 -266 2906 331 
L 2906 616 
Q 2728 306 2450 153 
Q 2172 0 1784 0 
Q 1141 0 747 490 
Q 353 981 353 1791 
Q 353 2603 747 3093 
Q 1141 3584 1784 3584 
Q 2172 3584 2450 3431 
Q 2728 3278 2906 2969 
L 2906 3500 
L 3481 3500 
L 3481 434 
z
" transform="scale(0.015625)"/>
       <path id="DejaVuSans-64" d="M 2906 2969 
L 2906 4863 
L 3481 4863 
L 3481 0 
L 2906 0 
L 2906 525 
Q 2725 213 2448 61 
Q 2172 -91 1784 -91 
Q 1150 -91 751 415 
Q 353 922 353 1747 
Q 353 2572 751 3078 
Q 1150 3584 1784 3584 
Q 2172 3584 2448 3432 
Q 2725 3281 2906 2969 
z
M 947 1747 
Q 947 1113 1208 752 
Q 1469 391 1925 391 
Q 2381 391 2643 752 
Q 2906 1113 2906 1747 
Q 2906 2381 2643 2742 
Q 2381 3103 1925 3103 
Q 1469 3103 1208 2742 
Q 947 2381 947 1747 
z
" transform="scale(0.015625)"/>
      </defs>
      <use xlink:href="#DejaVuSans-20"/>
      <use xlink:href="#DejaVuSans-63" x="31.787109"/>
      <use xlink:href="#DejaVuSans-68" x="86.767578"/>
      <use xlink:href="#DejaVuSans-61" x="150.146484"/>
      <use xlink:href="#DejaVuSans-6e" x="211.425781"/>
      <use xlink:href="#DejaVuSans-67" x="274.804688"/>
      <use xlink:href="#DejaVuSans-65" x="338.28125"/>
      <use xlink:href="#DejaVuSans-64" x="399.804688"/>
     </g>
    </g>
   </g>
   <g id="PolyCollection_6">
    <defs>
     <path id="m98180c15b6" d="M 60.730227 -112.749318 
L 60.730227 -112.765619 
L 92.750039 -112.761173 
L 125.855268 -112.758209 
L 175.784465 -112.816002 
L 192.065725 -112.912324 
L 208.889694 -112.771546 
L 225.170954 -112.767101 
L 241.994923 -112.758209 
L 258.818892 -118.175914 
L 274.014735 -115.929404 
L 290.838703 -113.601391 
L 307.119964 -112.999754 
L 323.943932 -123.756623 
L 340.225192 -121.024061 
L 357.049161 -113.699195 
L 373.87313 -115.892357 
L 390.15439 -116.369518 
L 406.978359 -129.249903 
L 423.259619 -141.693137 
L 440.083588 -134.311959 
L 456.907557 -116.483622 
L 472.103399 -114.557195 
L 488.927368 -113.536189 
L 505.208628 -122.273275 
L 522.032597 -113.521371 
L 538.313857 -123.608437 
L 555.137826 -113.287236 
L 571.961795 -121.692383 
L 588.243055 -117.111934 
L 605.067024 -113.67993 
L 621.348284 -114.883206 
L 638.172253 -116.319135 
L 654.996221 -171.435682 
L 670.734773 -119.359925 
L 670.734773 -112.749318 
L 670.734773 -112.749318 
L 654.996221 -112.749318 
L 638.172253 -112.749318 
L 621.348284 -112.749318 
L 605.067024 -112.749318 
L 588.243055 -112.749318 
L 571.961795 -112.749318 
L 555.137826 -112.749318 
L 538.313857 -112.749318 
L 522.032597 -112.749318 
L 505.208628 -112.749318 
L 488.927368 -112.749318 
L 472.103399 -112.749318 
L 456.907557 -112.749318 
L 440.083588 -112.749318 
L 423.259619 -112.749318 
L 406.978359 -112.749318 
L 390.15439 -112.749318 
L 373.87313 -112.749318 
L 357.049161 -112.749318 
L 340.225192 -112.749318 
L 323.943932 -112.749318 
L 307.119964 -112.749318 
L 290.838703 -112.749318 
L 274.014735 -112.749318 
L 258.818892 -112.749318 
L 241.994923 -112.749318 
L 225.170954 -112.749318 
L 208.889694 -112.749318 
L 192.065725 -112.749318 
L 175.784465 -112.749318 
L 125.855268 -112.749318 
L 92.750039 -112.749318 
L 60.730227 -112.749318 
z
" style="stroke: #36ada4"/>
    </defs>
    <g clip-path="url(#p35ae68aa6c)">
     <use xlink:href="#m98180c15b6" x="0" y="360" style="fill: #36ada4; stroke: #36ada4"/>
    </g>
   </g>
   <g id="patch_13">
    <path d="M 30.23 250.185 
L 30.23 185.63 
" style="fill: none"/>
   </g>
   <g id="patch_14">
    <path d="M 701.235 250.185 
L 701.235 185.63 
" style="fill: none"/>
   </g>
   <g id="patch_15">
    <path d="M 30.23 250.185 
L 701.235 250.185 
" style="fill: none"/>
   </g>
   <g id="patch_16">
    <path d="M 30.23 185.63 
L 701.235 185.63 
" style="fill: none"/>
   </g>
  </g>
  <g id="axes_4">
   <g id="patch_17">
    <path d="M 30.23 335.62 
L 701.235 335.62 
L 701.235 271.065 
L 30.23 271.065 
z
" style="fill: #ffffff"/>
   </g>
   <g id="matplotlib.axis_7">
    <g id="xtick_31">
     <g id="line2d_38">
      <path d="M 43.906258 335.62 
L 43.906258 271.065 
" clip-path="url(#p8e53a12fe0)" style="fill: none; stroke: #cccccc; stroke-width: 0.8; stroke-linecap: round"/>
     </g>
     <g id="text_11">
      <!-- 2021-01 -->
      <g style="fill: #262626" transform="translate(23.014852 346.718438) scale(0.1 -0.1)">
       <defs>
        <path id="DejaVuSans-2d" d="M 313 2009 
L 1997 2009 
L 1997 1497 
L 313 1497 
L 313 2009 
z
" transform="scale(0.015625)"/>
       </defs>
       <use xlink:href="#DejaVuSans-32"/>
       <use xlink:href="#DejaVuSans-30" x="63.623047"/>
       <use xlink:href="#DejaVuSans-32" x="127.246094"/>
       <use xlink:href="#DejaVuSans-31" x="190.869141"/>
       <use xlink:href="#DejaVuSans-2d" x="254.492188"/>
       <use xlink:href="#DejaVuSans-30" x="290.576172"/>
       <use xlink:href="#DejaVuSans-31" x="354.199219"/>
      </g>
     </g>
    </g>
    <g id="xtick_32">
     <g id="line2d_39">
      <path d="M 109.031299 335.62 
L 109.031299 271.065 
" clip-path="url(#p8e53a12fe0)" style="fill: none; stroke: #cccccc; stroke-width: 0.8; stroke-linecap: round"/>
     </g>
     <g id="text_12">
      <!-- 2021-05 -->
      <g style="fill: #262626" transform="translate(88.139893 346.718438) scale(0.1 -0.1)">
       <defs>
        <path id="DejaVuSans-35" d="M 691 4666 
L 3169 4666 
L 3169 4134 
L 1269 4134 
L 1269 2991 
Q 1406 3038 1543 3061 
Q 1681 3084 1819 3084 
Q 2600 3084 3056 2656 
Q 3513 2228 3513 1497 
Q 3513 744 3044 326 
Q 2575 -91 1722 -91 
Q 1428 -91 1123 -41 
Q 819 9 494 109 
L 494 744 
Q 775 591 1075 516 
Q 1375 441 1709 441 
Q 2250 441 2565 725 
Q 2881 1009 2881 1497 
Q 2881 1984 2565 2268 
Q 2250 2553 1709 2553 
Q 1456 2553 1204 2497 
Q 953 2441 691 2322 
L 691 4666 
z
" transform="scale(0.015625)"/>
       </defs>
       <use xlink:href="#DejaVuSans-32"/>
       <use xlink:href="#DejaVuSans-30" x="63.623047"/>
       <use xlink:href="#DejaVuSans-32" x="127.246094"/>
       <use xlink:href="#DejaVuSans-31" x="190.869141"/>
       <use xlink:href="#DejaVuSans-2d" x="254.492188"/>
       <use xlink:href="#DejaVuSans-30" x="290.576172"/>
       <use xlink:href="#DejaVuSans-35" x="354.199219"/>
      </g>
     </g>
    </g>
    <g id="xtick_33">
     <g id="line2d_40">
      <path d="M 175.784465 335.62 
L 175.784465 271.065 
" clip-path="url(#p8e53a12fe0)" style="fill: none; stroke: #cccccc; stroke-width: 0.8; stroke-linecap: round"/>
     </g>
     <g id="text_13">
      <!-- 2021-09 -->
      <g style="fill: #262626" transform="translate(154.893059 346.718438) scale(0.1 -0.1)">
       <defs>
        <path id="DejaVuSans-39" d="M 703 97 
L 703 672 
Q 941 559 1184 500 
Q 1428 441 1663 441 
Q 2288 441 2617 861 
Q 2947 1281 2994 2138 
Q 2813 1869 2534 1725 
Q 2256 1581 1919 1581 
Q 1219 1581 811 2004 
Q 403 2428 403 3163 
Q 403 3881 828 4315 
Q 1253 4750 1959 4750 
Q 2769 4750 3195 4129 
Q 3622 3509 3622 2328 
Q 3622 1225 3098 567 
Q 2575 -91 1691 -91 
Q 1453 -91 1209 -44 
Q 966 3 703 97 
z
M 1959 2075 
Q 2384 2075 2632 2365 
Q 2881 2656 2881 3163 
Q 2881 3666 2632 3958 
Q 2384 4250 1959 4250 
Q 1534 4250 1286 3958 
Q 1038 3666 1038 3163 
Q 1038 2656 1286 2365 
Q 1534 2075 1959 2075 
z
" transform="scale(0.015625)"/>
       </defs>
       <use xlink:href="#DejaVuSans-32"/>
       <use xlink:href="#DejaVuSans-30" x="63.623047"/>
       <use xlink:href="#DejaVuSans-32" x="127.246094"/>
       <use xlink:href="#DejaVuSans-31" x="190.869141"/>
       <use xlink:href="#DejaVuSans-2d" x="254.492188"/>
       <use xlink:href="#DejaVuSans-30" x="290.576172"/>
       <use xlink:href="#DejaVuSans-39" x="354.199219"/>
      </g>
     </g>
    </g>
    <g id="xtick_34">
     <g id="line2d_41">
      <path d="M 241.994923 335.62 
L 241.994923 271.065 
" clip-path="url(#p8e53a12fe0)" style="fill: none; stroke: #cccccc; stroke-width: 0.8; stroke-linecap: round"/>
     </g>
     <g id="text_14">
      <!-- 2022-01 -->
      <g style="fill: #262626" transform="translate(221.103517 346.718438) scale(0.1 -0.1)">
       <use xlink:href="#DejaVuSans-32"/>
       <use xlink:href="#DejaVuSans-30" x="63.623047"/>
       <use xlink:href="#DejaVuSans-32" x="127.246094"/>
       <use xlink:href="#DejaVuSans-32" x="190.869141"/>
       <use xlink:href="#DejaVuSans-2d" x="254.492188"/>
       <use xlink:href="#DejaVuSans-30" x="290.576172"/>
       <use xlink:href="#DejaVuSans-31" x="354.199219"/>
      </g>
     </g>
    </g>
    <g id="xtick_35">
     <g id="line2d_42">
      <path d="M 307.119964 335.62 
L 307.119964 271.065 
" clip-path="url(#p8e53a12fe0)" style="fill: none; stroke: #cccccc; stroke-width: 0.8; stroke-linecap: round"/>
     </g>
     <g id="text_15">
      <!-- 2022-05 -->
      <g style="fill: #262626" transform="translate(286.228557 346.718438) scale(0.1 -0.1)">
       <use xlink:href="#DejaVuSans-32"/>
       <use xlink:href="#DejaVuSans-30" x="63.623047"/>
       <use xlink:href="#DejaVuSans-32" x="127.246094"/>
       <use xlink:href="#DejaVuSans-32" x="190.869141"/>
       <use xlink:href="#DejaVuSans-2d" x="254.492188"/>
       <use xlink:href="#DejaVuSans-30" x="290.576172"/>
       <use xlink:href="#DejaVuSans-35" x="354.199219"/>
      </g>
     </g>
    </g>
    <g id="xtick_36">
     <g id="line2d_43">
      <path d="M 373.87313 335.62 
L 373.87313 271.065 
" clip-path="url(#p8e53a12fe0)" style="fill: none; stroke: #cccccc; stroke-width: 0.8; stroke-linecap: round"/>
     </g>
     <g id="text_16">
      <!-- 2022-09 -->
      <g style="fill: #262626" transform="translate(352.981724 346.718438) scale(0.1 -0.1)">
       <use xlink:href="#DejaVuSans-32"/>
       <use xlink:href="#DejaVuSans-30" x="63.623047"/>
       <use xlink:href="#DejaVuSans-32" x="127.246094"/>
       <use xlink:href="#DejaVuSans-32" x="190.869141"/>
       <use xlink:href="#DejaVuSans-2d" x="254.492188"/>
       <use xlink:href="#DejaVuSans-30" x="290.576172"/>
       <use xlink:href="#DejaVuSans-39" x="354.199219"/>
      </g>
     </g>
    </g>
    <g id="xtick_37">
     <g id="line2d_44">
      <path d="M 440.083588 335.62 
L 440.083588 271.065 
" clip-path="url(#p8e53a12fe0)" style="fill: none; stroke: #cccccc; stroke-width: 0.8; stroke-linecap: round"/>
     </g>
     <g id="text_17">
      <!-- 2023-01 -->
      <g style="fill: #262626" transform="translate(419.192182 346.718438) scale(0.1 -0.1)">
       <defs>
        <path id="DejaVuSans-33" d="M 2597 2516 
Q 3050 2419 3304 2112 
Q 3559 1806 3559 1356 
Q 3559 666 3084 287 
Q 2609 -91 1734 -91 
Q 1441 -91 1130 -33 
Q 819 25 488 141 
L 488 750 
Q 750 597 1062 519 
Q 1375 441 1716 441 
Q 2309 441 2620 675 
Q 2931 909 2931 1356 
Q 2931 1769 2642 2001 
Q 2353 2234 1838 2234 
L 1294 2234 
L 1294 2753 
L 1863 2753 
Q 2328 2753 2575 2939 
Q 2822 3125 2822 3475 
Q 2822 3834 2567 4026 
Q 2313 4219 1838 4219 
Q 1578 4219 1281 4162 
Q 984 4106 628 3988 
L 628 4550 
Q 988 4650 1302 4700 
Q 1616 4750 1894 4750 
Q 2613 4750 3031 4423 
Q 3450 4097 3450 3541 
Q 3450 3153 3228 2886 
Q 3006 2619 2597 2516 
z
" transform="scale(0.015625)"/>
       </defs>
       <use xlink:href="#DejaVuSans-32"/>
       <use xlink:href="#DejaVuSans-30" x="63.623047"/>
       <use xlink:href="#DejaVuSans-32" x="127.246094"/>
       <use xlink:href="#DejaVuSans-33" x="190.869141"/>
       <use xlink:href="#DejaVuSans-2d" x="254.492188"/>
       <use xlink:href="#DejaVuSans-30" x="290.576172"/>
       <use xlink:href="#DejaVuSans-31" x="354.199219"/>
      </g>
     </g>
    </g>
    <g id="xtick_38">
     <g id="line2d_45">
      <path d="M 505.208628 335.62 
L 505.208628 271.065 
" clip-path="url(#p8e53a12fe0)" style="fill: none; stroke: #cccccc; stroke-width: 0.8; stroke-linecap: round"/>
     </g>
     <g id="text_18">
      <!-- 2023-05 -->
      <g style="fill: #262626" transform="translate(484.317222 346.718438) scale(0.1 -0.1)">
       <use xlink:href="#DejaVuSans-32"/>
       <use xlink:href="#DejaVuSans-30" x="63.623047"/>
       <use xlink:href="#DejaVuSans-32" x="127.246094"/>
       <use xlink:href="#DejaVuSans-33" x="190.869141"/>
       <use xlink:href="#DejaVuSans-2d" x="254.492188"/>
       <use xlink:href="#DejaVuSans-30" x="290.576172"/>
       <use xlink:href="#DejaVuSans-35" x="354.199219"/>
      </g>
     </g>
    </g>
    <g id="xtick_39">
     <g id="line2d_46">
      <path d="M 571.961795 335.62 
L 571.961795 271.065 
" clip-path="url(#p8e53a12fe0)" style="fill: none; stroke: #cccccc; stroke-width: 0.8; stroke-linecap: round"/>
     </g>
     <g id="text_19">
      <!-- 2023-09 -->
      <g style="fill: #262626" transform="translate(551.070388 346.718438) scale(0.1 -0.1)">
       <use xlink:href="#DejaVuSans-32"/>
       <use xlink:href="#DejaVuSans-30" x="63.623047"/>
       <use xlink:href="#DejaVuSans-32" x="127.246094"/>
       <use xlink:href="#DejaVuSans-33" x="190.869141"/>
       <use xlink:href="#DejaVuSans-2d" x="254.492188"/>
       <use xlink:href="#DejaVuSans-30" x="290.576172"/>
       <use xlink:href="#DejaVuSans-39" x="354.199219"/>
      </g>
     </g>
    </g>
    <g id="xtick_40">
     <g id="line2d_47">
      <path d="M 638.172253 335.62 
L 638.172253 271.065 
" clip-path="url(#p8e53a12fe0)" style="fill: none; stroke: #cccccc; stroke-width: 0.8; stroke-linecap: round"/>
     </g>
     <g id="text_20">
      <!-- 2024-01 -->
      <g style="fill: #262626" transform="translate(617.280846 346.718438) scale(0.1 -0.1)">
       <use xlink:href="#DejaVuSans-32"/>
       <use xlink:href="#DejaVuSans-30" x="63.623047"/>
       <use xlink:href="#DejaVuSans-32" x="127.246094"/>
       <use xlink:href="#DejaVuSans-34" x="190.869141"/>
       <use xlink:href="#DejaVuSans-2d" x="254.492188"/>
       <use xlink:href="#DejaVuSans-30" x="290.576172"/>
       <use xlink:href="#DejaVuSans-31" x="354.199219"/>
      </g>
     </g>
    </g>
   </g>
   <g id="matplotlib.axis_8">
    <g id="ytick_8">
     <g id="line2d_48">
      <path d="M 30.23 273.999318 
L 701.235 273.999318 
" clip-path="url(#p8e53a12fe0)" style="fill: none; stroke: #cccccc; stroke-width: 0.8; stroke-linecap: round"/>
     </g>
     <g id="text_21">
      <!-- Lasse -->
      <g style="fill: #262626" transform="translate(-1.541875 277.798537) scale(0.1 -0.1)">
       <use xlink:href="#DejaVuSans-4c"/>
       <use xlink:href="#DejaVuSans-61" x="55.712891"/>
       <use xlink:href="#DejaVuSans-73" x="116.992188"/>
       <use xlink:href="#DejaVuSans-73" x="169.091797"/>
       <use xlink:href="#DejaVuSans-65" x="221.191406"/>
      </g>
     </g>
    </g>
    <g id="ytick_9">
     <g id="line2d_49">
      <path d="M 30.23 332.685682 
L 701.235 332.685682 
" clip-path="url(#p8e53a12fe0)" style="fill: none; stroke: #cccccc; stroke-width: 0.8; stroke-linecap: round"/>
     </g>
     <g id="text_22">
      <!-- Jia -->
      <g style="fill: #262626" transform="translate(14.87375 336.484901) scale(0.1 -0.1)">
       <use xlink:href="#DejaVuSans-4a"/>
       <use xlink:href="#DejaVuSans-69" x="29.492188"/>
       <use xlink:href="#DejaVuSans-61" x="57.275391"/>
      </g>
     </g>
    </g>
    <g id="text_23">
     <!-- % Lines -->
     <g style="fill: #262626" transform="translate(-18.819375 322.707344) rotate(-90) scale(0.1 -0.1)">
      <use xlink:href="#DejaVuSans-25"/>
      <use xlink:href="#DejaVuSans-20" x="95.019531"/>
      <use xlink:href="#DejaVuSans-4c" x="126.806641"/>
      <use xlink:href="#DejaVuSans-69" x="182.519531"/>
      <use xlink:href="#DejaVuSans-6e" x="210.302734"/>
      <use xlink:href="#DejaVuSans-65" x="273.681641"/>
      <use xlink:href="#DejaVuSans-73" x="335.205078"/>
     </g>
     <!--  changed -->
     <g style="fill: #262626" transform="translate(-7.621562 326.507344) rotate(-90) scale(0.1 -0.1)">
      <use xlink:href="#DejaVuSans-20"/>
      <use xlink:href="#DejaVuSans-63" x="31.787109"/>
      <use xlink:href="#DejaVuSans-68" x="86.767578"/>
      <use xlink:href="#DejaVuSans-61" x="150.146484"/>
      <use xlink:href="#DejaVuSans-6e" x="211.425781"/>
      <use xlink:href="#DejaVuSans-67" x="274.804688"/>
      <use xlink:href="#DejaVuSans-65" x="338.28125"/>
      <use xlink:href="#DejaVuSans-64" x="399.804688"/>
     </g>
    </g>
   </g>
   <g id="PolyCollection_7">
    <defs>
     <path id="ma536ff11af" d="M 588.243055 -56.6575 
L 588.243055 -48.016013 
L 588.243055 -56.6575 
L 588.243055 -56.6575 
z
" style="stroke: #bb9832"/>
    </defs>
    <g clip-path="url(#p8e53a12fe0)">
     <use xlink:href="#ma536ff11af" x="0" y="360" style="fill: #bb9832; stroke: #bb9832"/>
    </g>
   </g>
   <g id="PolyCollection_8">
    <defs>
     <path id="m022b807cf6" d="M 241.994923 -56.6575 
L 241.994923 -27.314318 
L 307.119964 -56.483872 
L 323.943932 -54.034469 
L 340.225192 -56.032171 
L 357.049161 -55.925065 
L 373.87313 -55.772086 
L 390.15439 -43.373194 
L 406.978359 -56.544186 
L 423.259619 -36.924616 
L 440.083588 -28.984042 
L 456.907557 -29.258886 
L 472.103399 -32.701919 
L 488.927368 -28.198482 
L 505.208628 -27.332581 
L 522.032597 -34.129145 
L 538.313857 -27.714744 
L 555.137826 -36.125356 
L 571.961795 -45.839177 
L 588.243055 -44.288312 
L 605.067024 -29.930908 
L 621.348284 -33.468235 
L 638.172253 -32.539816 
L 654.996221 -32.278571 
L 670.734773 -29.307366 
L 670.734773 -56.6575 
L 670.734773 -56.6575 
L 654.996221 -56.6575 
L 638.172253 -56.6575 
L 621.348284 -56.6575 
L 605.067024 -56.6575 
L 588.243055 -56.6575 
L 571.961795 -56.6575 
L 555.137826 -56.6575 
L 538.313857 -56.6575 
L 522.032597 -56.6575 
L 505.208628 -56.6575 
L 488.927368 -56.6575 
L 472.103399 -56.6575 
L 456.907557 -56.6575 
L 440.083588 -56.6575 
L 423.259619 -56.6575 
L 406.978359 -56.6575 
L 390.15439 -56.6575 
L 373.87313 -56.6575 
L 357.049161 -56.6575 
L 340.225192 -56.6575 
L 323.943932 -56.6575 
L 307.119964 -56.6575 
L 241.994923 -56.6575 
z
" style="stroke: #bb9832; stroke-opacity: 0.6"/>
    </defs>
    <g clip-path="url(#p8e53a12fe0)">
     <use xlink:href="#m022b807cf6" x="0" y="360" style="fill: #bb9832; fill-opacity: 0.6; stroke: #bb9832; stroke-opacity: 0.6"/>
    </g>
   </g>
   <g id="PolyCollection_9">
    <defs>
     <path id="mecb1ddb801" d="M 258.818892 -56.6575 
L 258.818892 -56.673526 
L 274.014735 -57.65566 
L 290.838703 -57.984322 
L 323.943932 -76.515897 
L 340.225192 -83.121014 
L 357.049161 -61.189442 
L 373.87313 -56.712838 
L 390.15439 -57.077889 
L 406.978359 -56.918387 
L 423.259619 -56.686044 
L 571.961795 -56.929781 
L 571.961795 -56.6575 
L 571.961795 -56.6575 
L 423.259619 -56.6575 
L 406.978359 -56.6575 
L 390.15439 -56.6575 
L 373.87313 -56.6575 
L 357.049161 -56.6575 
L 340.225192 -56.6575 
L 323.943932 -56.6575 
L 290.838703 -56.6575 
L 274.014735 -56.6575 
L 258.818892 -56.6575 
z
" style="stroke: #50b131"/>
    </defs>
    <g clip-path="url(#p8e53a12fe0)">
     <use xlink:href="#mecb1ddb801" x="0" y="360" style="fill: #50b131; stroke: #50b131"/>
    </g>
   </g>
   <g id="PolyCollection_10">
    <defs>
     <path id="m1e755a45da" d="M 60.730227 -56.6575 
L 60.730227 -86.000682 
L 92.750039 -63.993295 
L 125.855268 -86.000682 
L 175.784465 -86.000682 
L 192.065725 -83.866632 
L 208.889694 -62.526136 
L 258.818892 -85.936579 
L 274.014735 -86.000682 
L 290.838703 -86.000682 
L 307.119964 -85.827054 
L 323.943932 -83.373701 
L 340.225192 -85.370098 
L 357.049161 -85.268247 
L 373.87313 -85.115268 
L 390.15439 -72.716376 
L 406.978359 -85.887367 
L 423.259619 -66.267798 
L 440.083588 -58.327224 
L 456.907557 -58.602068 
L 472.103399 -62.045101 
L 488.927368 -56.76802 
L 505.208628 -56.675762 
L 522.032597 -59.924111 
L 538.313857 -56.825679 
L 555.137826 -65.145197 
L 571.961795 -74.910077 
L 588.243055 -66.046521 
L 605.067024 -58.900291 
L 621.348284 -57.105799 
L 638.172253 -60.189888 
L 654.996221 -61.617308 
L 670.734773 -57.946732 
L 670.734773 -56.6575 
L 670.734773 -56.6575 
L 654.996221 -56.6575 
L 638.172253 -56.6575 
L 621.348284 -56.6575 
L 605.067024 -56.6575 
L 588.243055 -56.6575 
L 571.961795 -56.6575 
L 555.137826 -56.6575 
L 538.313857 -56.6575 
L 522.032597 -56.6575 
L 505.208628 -56.6575 
L 488.927368 -56.6575 
L 472.103399 -56.6575 
L 456.907557 -56.6575 
L 440.083588 -56.6575 
L 423.259619 -56.6575 
L 406.978359 -56.6575 
L 390.15439 -56.6575 
L 373.87313 -56.6575 
L 357.049161 -56.6575 
L 340.225192 -56.6575 
L 323.943932 -56.6575 
L 307.119964 -56.6575 
L 290.838703 -56.6575 
L 274.014735 -56.6575 
L 258.818892 -56.6575 
L 208.889694 -56.6575 
L 192.065725 -56.6575 
L 175.784465 -56.6575 
L 125.855268 -56.6575 
L 92.750039 -56.6575 
L 60.730227 -56.6575 
z
" style="stroke: #50b131; stroke-opacity: 0.6"/>
    </defs>
    <g clip-path="url(#p8e53a12fe0)">
     <use xlink:href="#m1e755a45da" x="0" y="360" style="fill: #50b131; fill-opacity: 0.6; stroke: #50b131; stroke-opacity: 0.6"/>
    </g>
   </g>
   <g id="patch_18">
    <path d="M 30.23 335.62 
L 30.23 271.065 
" style="fill: none"/>
   </g>
   <g id="patch_19">
    <path d="M 701.235 335.62 
L 701.235 271.065 
" style="fill: none"/>
   </g>
   <g id="patch_20">
    <path d="M 30.23 335.62 
L 701.235 335.62 
" style="fill: none"/>
   </g>
   <g id="patch_21">
    <path d="M 30.23 271.065 
L 701.235 271.065 
" style="fill: none"/>
   </g>
  </g>
 </g>
 <defs>
  <clipPath id="p003f43ddea">
   <rect x="30.23" y="14.76" width="671.005" height="64.555"/>
  </clipPath>
  <clipPath id="p4a85cabe6f">
   <rect x="30.23" y="100.195" width="671.005" height="64.555"/>
  </clipPath>
  <clipPath id="p35ae68aa6c">
   <rect x="30.23" y="185.63" width="671.005" height="64.555"/>
  </clipPath>
  <clipPath id="p8e53a12fe0">
   <rect x="30.23" y="271.065" width="671.005" height="64.555"/>
  </clipPath>
 </defs>
</svg>
